<svg xmlns="http://www.w3.org/2000/svg" viewBox="0 0 16 16" shape-rendering="crispEdges">
    <rect x="4" y="1" width="8" height="1" fill="#0d0d0d"/>
    <rect x="3" y="2" width="10" height="1" fill="#0d0d0d"/>
    <rect x="3" y="3" width="10" height="1" fill="#161616"/>
    <rect x="3" y="4" width="2" height="1" fill="#161616"/>
    <rect x="11" y="4" width="2" height="1" fill="#161616"/>
    <rect x="6" y="2" width="3" height="1" fill="#2a2a2a"/>
    <rect x="3" y="7" width="1" height="2" fill="#f0c9a8"/>
    <rect x="12" y="7" width="1" height="2" fill="#f0c9a8"/>
    <rect x="5" y="4" width="6" height="1" fill="#ffdcc0"/>
    <rect x="4" y="5" width="8" height="1" fill="#ffdcc0"/>
    <rect x="4" y="6" width="8" height="1" fill="#ffdcc0"/>
    <rect x="4" y="7" width="8" height="1" fill="#ffdcc0"/>
    <rect x="4" y="8" width="8" height="1" fill="#ffdcc0"/>
    <rect x="4" y="9" width="8" height="1" fill="#ffdcc0"/>
    <rect x="4" y="10" width="8" height="1" fill="#ffdcc0"/>
    <rect x="4" y="10" width="1" height="1" fill="#f0c9a8"/>
    <rect x="11" y="10" width="1" height="1" fill="#f0c9a8"/>
    <rect x="5" y="11" width="6" height="1" fill="#f0c9a8"/>
    <rect x="6" y="12" width="4" height="1" fill="#ffdcc0"/>
    <rect x="5" y="6" width="2" height="1" fill="#161616"/>
    <rect x="9" y="6" width="2" height="1" fill="#161616"/>
    <rect x="5" y="7" width="2" height="1" fill="#2a1a12"/>
    <rect x="9" y="7" width="2" height="1" fill="#2a1a12"/>
    <rect x="5" y="7" width="1" height="1" fill="#ffffff"/>
    <rect x="9" y="7" width="1" height="1" fill="#ffffff"/>
    <rect x="7" y="8" width="1" height="1" fill="#f0c9a8"/>
    <rect x="6" y="10" width="4" height="1" fill="#8a4b3a"/>
    <rect x="6" y="10" width="1" height="1" fill="#6e3a2d"/>
    <rect x="6" y="13" width="4" height="1" fill="#ffdcc0"/>
    <rect x="4" y="14" width="8" height="2" fill="#2c3e50"/>
</svg>
